<svg id="visual" viewBox="0 0 900 600" width="900" height="600" xmlns="http://www.w3.org/2000/svg" xmlns:xlink="http://www.w3.org/1999/xlink" version="1.1"><rect x="0" y="0" width="900" height="600" fill="#0d3a33"></rect><path d="M0 409L21.5 418.7C43 428.3 86 447.7 128.8 442.2C171.7 436.7 214.3 406.3 257.2 409.3C300 412.3 343 448.7 385.8 454.5C428.7 460.3 471.3 435.7 514.2 439.7C557 443.7 600 476.3 642.8 494.3C685.7 512.3 728.3 515.7 771.2 511.3C814 507 857 495 878.5 489L900 483L900 601L878.5 601C857 601 814 601 771.2 601C728.3 601 685.7 601 642.8 601C600 601 557 601 514.2 601C471.3 601 428.7 601 385.8 601C343 601 300 601 257.2 601C214.3 601 171.7 601 128.8 601C86 601 43 601 21.5 601L0 601Z" fill="#186960" stroke-linecap="round" stroke-linejoin="miter"></path></svg>