<?xml version="1.0" encoding="UTF-8" standalone="no"?>
<svg
   width="1388.5228"
   height="1041.0879"
   viewBox="0 0 1781.2353 1335.5362"
   version="1.1"
   id="svg1"
   xml:space="preserve"
   inkscape:version="1.3.2 (091e20e, 2023-11-25, custom)"
   sodipodi:docname="areas.svg"
   xmlns:inkscape="http://www.inkscape.org/namespaces/inkscape"
   xmlns:sodipodi="http://sodipodi.sourceforge.net/DTD/sodipodi-0.dtd"
   xmlns="http://www.w3.org/2000/svg"
   xmlns:svg="http://www.w3.org/2000/svg"><sodipodi:namedview
   id="namedview1"
   pagecolor="#ffffff"
   bordercolor="#000000"
   borderopacity="0"
   inkscape:showpageshadow="2"
   inkscape:pageopacity="0.0"
   inkscape:pagecheckerboard="0"
   inkscape:deskcolor="#d1d1d1"
   inkscape:document-units="mm"
   inkscape:zoom="0.36213174"
   inkscape:cx="1133.5654"
   inkscape:cy="517.76737"
   inkscape:window-width="1920"
   inkscape:window-height="1009"
   inkscape:window-x="-8"
   inkscape:window-y="-8"
   inkscape:window-maximized="1"
   inkscape:current-layer="layer1" /><defs
   id="defs1" /><g
   inkscape:label="Capa 1"
   inkscape:groupmode="layer"
   id="layer1"
   transform="translate(-143.28254,-364.27154)"><path
     style="fill:#00ff00;fill-opacity:0.5;stroke:#000000;stroke-width:2.065;stroke-dasharray:none"
     d="m 154.8856,498.29977 76.56532,910.03773 1067.60438,290.371 171.7946,-85.2683 452.4351,-426.0795 -234.4166,-548.28753 -66.6454,-39.7806 -332.1941,90.4105 -116.2421,-30.48127 -25.3149,76.46149 496.4829,135.87407 114.6921,270.71494 -380.2408,360.6088 -97.1267,47.0134 L 310.51661,1285.6301 247.61916,523.62305 154.8838,498.30811"
     id="path1"
     sodipodi:nodetypes="ccccccccccccccccc" /><path
     style="fill:#00ffff;fill-opacity:0.5;stroke:#000000;stroke-width:2.065;stroke-dasharray:none"
     d="m 145.17345,378.6909 7.74948,87.82735 908.75487,246.43323 26.3176,-78.49301 0.1826,-3.28782 -0.2739,-3.8358 -2.0093,-3.19648 -2.2832,-2.10055 -5.4797,-2.00922 -4.6577,-1.09596 -929.07569,-253.28668 z"
     id="path2" /><path
     style="fill:#000080;fill-opacity:0.5;stroke:#000000;stroke-width:2.065;stroke-dasharray:none"
     d="m 384.30996,561.12176 -80.36901,246.22141 33.24354,397.82653 8.03691,3.8358 h 2.46586 l 4.01847,0.1827 4.65775,-0.548 3.56179,-1.2786 194.42036,-600.31957 z"
     id="path3"
     inkscape:label="path3" /><path
     style="fill:#0000ff;fill-opacity:0.5;stroke:#000000;stroke-width:2.065;stroke-dasharray:none"
     d="M 585.86015,616.34139 756.86517,662.32161 545.30458,1317.6687 374.04122,1270.1386 Z"
     id="path4" /><path
     style="fill:#800080;fill-opacity:0.5;stroke:#000000;stroke-width:2.065;stroke-dasharray:none"
     d="M 790.70453,670.84603 577.56088,1326.2712 767.52399,1378.1457 980.56662,722.63833 Z"
     id="path5" /><path
     style="fill:#2b0000;fill-opacity:0.5;stroke:#000000;stroke-width:2.065;stroke-dasharray:none"
     d="M 1003.8819,755.46862 1213.9373,815.38007 1010.0922,1444.0849 800.03689,1386 Z"
     id="path6" /><path
     style="fill:#800000;fill-opacity:0.5;stroke:#000000;stroke-width:2.065;stroke-dasharray:none"
     d="m 1255.9483,796.38376 189.9631,52.97048 -213.3432,655.37266 -190.3284,-51.1439 z"
     id="path7" /><path
     style="fill:#ffd42a;fill-opacity:0.5;stroke:#000000;stroke-width:2.065;stroke-dasharray:none"
     d="m 1477.3284,857.39114 141.7417,38.35792 11.3247,29.22511 -137.3579,425.59033 -133.7048,126.7639 -77.0812,37.9926 -6.2103,0.9133 -2.1006,-0.7306 -2.6485,-1.0046 -2.3745,-2.8312 -1.2786,-3.8358 0.091,-3.1052 1.0959,-3.1051 z"
     id="path8" /></g>
</svg>
